<?xml version="1.0" encoding="utf-8"?>
<!-- Generator: Adobe Illustrator 24.3.0, SVG Export Plug-In . SVG Version: 6.00 Build 0)  -->
<svg version="1.1" xmlns="http://www.w3.org/2000/svg" xmlns:xlink="http://www.w3.org/1999/xlink" x="0px" y="0px"
	 viewBox="0 0 1080 529.57" style="enable-background:new 0 0 1080 529.57;" xml:space="preserve">
<style type="text/css">
	.st0{display:none;}
	.st1{display:inline;fill:#F4C1C1;}
	.st2{fill:#FFFFFF;}
</style>
<g id="Layer_2" class="st0">
	<rect x="22.62" y="-132.52" class="st1" width="1241.1" height="745.68"/>
</g>
<g id="Layer_7">
	<g>
		<path d="M946.84,300.83c-1.04-7.23-1.75-14.5-2.12-21.79l-0.64-12.52c-0.59-11.53-0.3-23.09,0.88-34.56
			c0.46-4.44,1-8.87,1.88-13.26c2.39-11.92,7.75-22.69,17.16-31.4c6.9-6.38,14.32-11.85,24.65-13c7.99-0.89,15.77-0.34,22.53,3.71
			c9.49,5.68,17.84,12.71,24.1,21.53c4.88,6.87,7.69,14.52,9.79,22.45c2.81,10.6,4.92,21.28,4.26,32.18
			c-1.58,25.81-7.76,50.59-20.85,73.47c-6.43,11.24-13.75,22.06-21.2,32.75c-3.99,5.72-10,9.71-17.04,12.1
			c-6.98,2.37-13.69,1.74-19.77-2.44c-10.12-6.97-14.98-16.81-17.32-27.82c-1.26-5.94-1.65-12.04-2.93-17.98L946.84,300.83z
			 M955.8,299.43c2.23,15.88,5.19,31.7,8.13,47.49c1.42,7.61,7.24,12.69,13.91,16.6c2.13,1.25,5.86,1.11,8.49,0.44
			c6.4-1.62,11.11-5.77,14.57-10.77c5.88-8.51,11.48-17.18,16.84-25.98c11.85-19.45,17.83-40.72,20.9-62.72
			c2.87-20.55-0.57-40.3-11.85-58.64c-6.02-9.79-14.46-16.99-26.09-21.05c-7.14-2.49-13.6-1.88-19.87,1.64
			c-11.66,6.54-18.79,16.22-22.71,28.12c-3.35,10.17-4.63,20.63-4.92,33.86C952.75,263.72,953.3,281.63,955.8,299.43z"/>
		<path class="st2" d="M953.2,248.42c-0.46,15.3,0.1,33.21,2.6,51.01c2.23,15.88,5.19,31.7,8.13,47.49
			c1.42,7.61,7.24,12.69,13.91,16.6c2.13,1.25,5.86,1.11,8.49,0.44c6.4-1.62,11.11-5.77,14.57-10.77
			c5.88-8.51,11.48-17.18,16.84-25.98c11.85-19.45,17.83-40.72,20.9-62.72c2.87-20.55-0.57-40.3-11.85-58.64
			c-6.02-9.79-14.46-16.99-26.09-21.05c-7.14-2.49-13.6-1.88-19.87,1.64c-11.66,6.54-18.79,16.22-22.71,28.12
			C954.78,224.72,953.49,235.19,953.2,248.42z"/>
	</g>
	<g>
		<path d="M947.72,419.66c-1.95-17.89,6.33-29.86,23.71-32.68c13.64-2.21,27.86,9.16,29.86,23.37c2.15,15.32-7.86,28.16-23.67,30.37
			C962.07,442.9,949.31,434.25,947.72,419.66z M976.57,431.91c10.42-1.47,17.32-10.18,15.97-20.14
			c-1.25-9.25-11.08-17.82-19.1-16.68c-11.74,1.67-18.51,10.96-16.86,23.11C957.92,428.02,965.8,433.43,976.57,431.91z"/>
		<path class="st2" d="M956.58,418.19c1.34,9.83,9.22,15.23,19.99,13.71c10.42-1.47,17.32-10.18,15.97-20.14
			c-1.25-9.25-11.08-17.82-19.1-16.68C961.7,396.76,954.93,406.04,956.58,418.19z"/>
	</g>
</g>
<g id="Layer_6">
	<g>
		<path d="M866.47,345.38c1.97,5.64,4.49,11.1,5.77,16.84c3.69,16.58,1.93,32.7-5.59,48.04c-3.1,6.33-7.56,11.69-13.05,16.02
			c-29.21,23.04-67.74,17.17-89.22-12.59c-9.87-13.67-14.96-29.32-17.73-45.82c-6.22-36.92-0.9-72.59,11.89-107.38
			c7.17-19.51,17.12-37.45,30.46-53.55c16.94-20.45,38.4-33.61,63.93-39.87c19.11-4.69,38.36-4.36,57.25,2.04
			c5.8,1.96,11.9,3.14,17.5,5.51c24.53,10.4,40.76,28.21,47.54,54.28c4.48,17.21,5.35,34.45-0.17,51.53
			c-8.77,27.11-26.95,45.67-53.22,56.14c-15.61,6.22-31.93,9.6-48.87,9.25c-1.21-0.03-2.42-0.12-3.62-0.21
			C868.26,345.54,867.17,345.44,866.47,345.38z M753.68,333.26c0.05,15.05,1.16,25.95,3.24,36.75c2.7,14.01,7.29,27.35,15.97,38.81
			c10.81,14.28,25.08,22.14,43.41,21.74c10.09-0.22,19.05-3.66,27.4-9.07c6.52-4.23,11.8-9.68,14.83-16.83
			c9.01-21.24,8.32-41.74-5.52-60.96c-0.54-0.76-1.75-1.56-2.64-1.83c-13.59-4.04-24.37-12.37-33.9-22.49
			c-2.33-2.47-4.19-5.53-5.7-8.6c-1.33-2.68-0.13-5.42,2.05-6.45c2.16-1.02,4.55-0.26,6.18,2.32c4.68,7.37,10.95,12.98,18.29,17.62
			c12.5,7.88,25.77,12.64,40.8,11.87c13.59-0.69,26.74-3.39,39.36-8.28c22.07-8.54,38.07-23.55,46.76-45.82
			c6.13-15.72,5.98-31.76,2.3-48.04c-5.12-22.64-18.01-39.29-39-48.72c-10.55-4.74-22.09-7.36-33.32-10.48
			c-0.65-0.18-1.3-0.33-1.97-0.43c-6.85-1.04-13.38-0.94-20.15-0.5c-16.01,1.04-30.75,6.08-44.78,13.54
			c-17.05,9.07-29.91,22.69-40.39,38.54C764.62,259.67,754.87,297.24,753.68,333.26z"/>
		<path class="st2" d="M753.68,333.26c1.19-36.02,10.94-73.59,33.23-107.3c10.48-15.85,23.34-29.47,40.39-38.54
			c14.03-7.46,28.77-12.51,44.78-13.54c6.62-0.43,12.46-0.54,19.59,0.39c1.05,0.14,2.09,0.37,3.11,0.65
			c11.05,3.06,22.36,5.71,32.73,10.37c20.99,9.43,33.88,26.09,39,48.72c3.68,16.28,3.83,32.32-2.3,48.04
			c-8.68,22.27-24.69,37.28-46.76,45.82c-12.62,4.88-25.77,7.59-39.36,8.28c-15.04,0.76-28.31-3.99-40.8-11.87
			c-7.35-4.63-13.61-10.25-18.29-17.62c-1.64-2.57-4.02-3.33-6.18-2.32c-2.19,1.03-3.38,3.77-2.05,6.45c1.52,3.06,3.37,6.12,5.7,8.6
			c9.53,10.11,20.31,18.44,33.9,22.49c0.89,0.27,2.09,1.07,2.64,1.83c13.84,19.22,14.53,39.72,5.52,60.96
			c-3.03,7.15-8.3,12.6-14.83,16.83c-8.35,5.41-17.31,8.85-27.4,9.07c-18.33,0.41-32.6-7.46-43.41-21.74
			c-8.68-11.46-13.27-24.8-15.97-38.81C754.84,359.21,753.73,348.31,753.68,333.26z M881.47,263.85
			c-0.27-12.65-4.03-21.67-10.93-29.43c-1.82-2.05-4.05-3.45-6.84-3.75c-2.31-0.25-4.27,1.03-4.87,3.1
			c-0.59,2.04,0.43,3.79,2.31,5.06c1.81,1.22,3.7,2.59,4.92,4.34c6.9,9.81,6.99,20.42,3.18,31.36c-1.02,2.93-0.33,5.37,1.9,6.51
			c2.15,1.1,4.9,0.28,6.55-2.07c0.54-0.78,1.03-1.68,1.23-2.6C879.96,271.51,880.91,266.63,881.47,263.85z"/>
		<path d="M881.47,263.85c-0.56,2.78-1.5,7.66-2.55,12.52c-0.2,0.92-0.68,1.82-1.23,2.6c-1.65,2.35-4.4,3.18-6.55,2.07
			c-2.23-1.15-2.92-3.58-1.9-6.51c3.81-10.95,3.72-21.55-3.18-31.36c-1.23-1.75-3.12-3.12-4.92-4.34c-1.88-1.27-2.9-3.02-2.31-5.06
			c0.6-2.07,2.56-3.35,4.87-3.1c2.79,0.3,5.02,1.69,6.84,3.75C877.44,242.18,881.2,251.2,881.47,263.85z"/>
	</g>
</g>
<g id="Layer_5">
	<g>
		<path d="M648.36,436.56c-42.57-1.36-77.12-18.26-101.05-54.99c-10.01-15.36-15.62-32.46-17.78-50.72
			c-6.96-58.71,27.05-116.13,78.96-141.92c20.72-10.29,42.57-15.41,65.67-14.48c55.27,2.21,101.99,40.19,112.38,97.14
			c7.08,38.82-2.36,74.15-25.25,105.64c-22.5,30.96-52.79,49.93-90.13,57.16c-2.5,0.48-5.04,0.88-7.57,1.1
			C658.59,435.92,653.57,436.2,648.36,436.56z M642.29,426.33c20.12,0,36.64-2.98,49.42-7.97c34.78-13.57,60.27-37.39,75.88-71.68
			c10.86-23.86,14.56-49.03,8.86-74.76c-10.16-45.81-38.41-74.21-83.47-84.87c-23.26-5.51-46.23-2.77-68.44,5.76
			c-49.2,18.87-82.87,65.71-85.71,115.63c-1.2,21.07,2.34,41.22,12.33,59.74C572.05,406.91,605.45,424.74,642.29,426.33z"/>
		<path class="st2" d="M776.45,271.92c-10.16-45.81-38.41-74.21-83.47-84.87c-23.26-5.51-46.23-2.77-68.44,5.76
			c-49.2,18.87-82.87,65.71-85.71,115.63c-1.2,21.07,2.34,41.22,12.33,59.74c20.9,38.75,54.3,56.57,91.14,58.16
			c20.12,0,36.64-2.98,49.42-7.97c34.78-13.57,60.27-37.39,75.88-71.68C778.44,322.82,782.15,297.65,776.45,271.92z"/>
		<path d="M673.49,301.33c-0.39,10.52-2.73,20.62-6.52,30.38c-0.58,1.48-1.73,2.85-2.91,3.94c-1.45,1.35-3.3,1.47-5.05,0.44
			c-1.67-0.98-2.39-2.56-2.13-4.44c0.18-1.3,0.62-2.58,1.05-3.83c3.51-10.05,6.17-20.26,5.48-31.05
			c-0.6-9.25-3.35-17.65-10.08-24.33c-0.23-0.23-0.46-0.48-0.67-0.73c-2.27-2.58-2.45-5.24-0.5-7.11c1.97-1.88,4.39-1.51,6.97,0.91
			C669.44,275.17,673.09,287.55,673.49,301.33z"/>
	</g>
</g>
<g id="Layer_4">
	<g>
		<path d="M456.18,436.56c-42.98-1.41-77.8-18.27-101.93-54.85c-10.21-15.47-16.18-32.68-17.98-51.13
			c-4.53-46.49,11.68-85.26,44.94-117.1c20.92-20.03,46.1-32.23,74.68-37.02c15.9-2.66,31.82-2.3,47.62,1.04
			c47.06,9.95,83.34,45.77,92.32,94.27c6.61,35.73-1.07,68.86-20.91,98.93c-22.85,34.65-55.02,55.84-95.8,63.72
			c-2.45,0.47-4.92,0.85-7.4,1.06C466.58,435.91,461.43,436.2,456.18,436.56z M456.2,426.4c3.49-0.16,6.99-0.24,10.47-0.52
			c2.9-0.23,5.79-0.62,8.66-1.09c27.34-4.42,51.21-16.14,71.01-35.42c30.74-29.94,45.56-66.2,40.57-109.43
			c-2.97-25.75-14.02-47.93-33.17-65.47c-28.58-26.18-62.56-34.32-100.09-27.28c-59.83,11.23-104.63,63.62-108.01,121.32
			c-1.22,20.77,2.21,40.66,12.04,58.99C378.71,406.7,412.61,424.77,456.2,426.4z"/>
		<path class="st2" d="M586.91,279.94c-2.97-25.75-14.02-47.93-33.17-65.47c-28.58-26.18-62.56-34.32-100.09-27.28
			c-59.83,11.23-104.63,63.62-108.01,121.32c-1.22,20.77,2.21,40.66,12.04,58.99c21.03,39.21,54.93,57.28,98.52,58.9
			c3.49-0.16,6.99-0.24,10.47-0.52c2.9-0.23,5.79-0.62,8.66-1.09c27.34-4.42,51.21-16.14,71.01-35.42
			C577.07,359.43,591.9,323.16,586.91,279.94z"/>
		<path d="M482.39,320.12c-0.54,3.21-1.13,7.67-2.08,12.04c-0.37,1.73-1.31,3.45-2.39,4.87c-1.67,2.19-4.48,2.62-6.47,1.38
			c-2.01-1.26-2.49-3.45-1.76-6.19c0.91-3.44,2.02-6.93,2.23-10.45c0.79-13.09-3.63-24.37-12.74-33.73
			c-1.41-1.44-3.33-2.45-5.15-3.4c-2.51-1.3-3.65-3.27-2.91-5.61c0.69-2.18,3.3-3.83,5.64-2.8c3.21,1.42,6.58,3.05,9.08,5.44
			C476.36,291.73,481.57,304.32,482.39,320.12z"/>
	</g>
</g>
<g id="Layer_3">
	<g>
		<path d="M174.34,423.49c0.49,7.44,1.07,14.88,1.44,22.32c0.73,14.66,1.34,29.32,2.01,43.98c0.07,1.49,0.02,3.01,0.3,4.46
			c0.13,0.66,0.83,1.57,1.43,1.73c6.06,1.56,8.86,4.71,8.32,9.58c-0.48,4.39-5.48,8.44-10.6,8.59c-9.01,0.28-15.39-5.83-15.81-15.37
			c-0.28-6.5-0.31-13-0.43-19.51c-0.24-13.62-0.36-27.24-0.75-40.86c-0.25-8.6-0.85-17.2-1.42-25.78c-0.06-0.88-0.8-1.9-1.51-2.53
			c-9.58-8.47-18.18-17.83-25.59-28.26c-11.43-16.09-18.02-34.03-20.39-53.57c-3.52-29.02,2.09-56.71,13.03-83.38
			c4.11-10.02,9.75-19.43,14.94-28.98c1.13-2.08,1.22-3.49,0.05-5.44c-6.09-10.23-14.21-18.69-22.79-26.79
			c-11.6-10.95-25.42-17.9-40.35-23.07c-8.84-3.06-17.57-6.39-25.38-11.93C33.91,136.67,31.7,118.4,38,102.42
			c6.24-15.84,18.03-24.81,34.69-26.38c15.86-1.5,30.67,2.44,43.66,12.1c7.81,5.81,14.62,12.7,20.02,20.78
			c12.67,18.94,23.65,38.83,32.34,59.94c0.53,1.3,0.96,2.64,1.42,3.97c0.45,1.31,0.89,2.63,1.36,4.06
			c3.68-2.87,7.18-5.64,10.72-8.35c8.38-6.42,17.23-12.12,26.72-16.76c1.64-0.8,2.48-1.72,1.99-3.64
			c-1.81-7.21-3.4-14.49-5.39-21.66c-2.97-10.66-7.39-20.61-14.52-29.27c-4.28-5.19-9.7-8.84-15.09-12.61
			c-5.46-3.82-11.08-7.47-16.21-11.7c-15.96-13.15-17.22-30.79-5.83-47.08c8.47-12.11,20.66-16.36,35-14.62
			c4.4,0.53,8.81,1.62,13.03,3.02c9.82,3.26,16.18,10.62,21.1,19.28c8.59,15.12,13.68,31.52,16.92,48.52
			c3.22,16.88,3.97,34,4.68,51.12c0.03,0.78,0.08,1.56,0.13,2.69c2.98-1.04,5.78-1.98,8.55-3c12.95-4.77,26.4-6.84,40.09-8.1
			c17.34-1.6,34.56,0.02,51.78,1.3c5.34,0.4,10.76,1.92,15.79,3.83c11.38,4.33,22.82,8.69,32.56,16.64
			c0.47-0.42,0.92-0.79,1.32-1.21c4.07-4.28,8.94-6.28,14.74-4.54c5.94,1.78,9.33,6.19,10.44,12.12c1.13,6.03,0.1,11.77-4.02,16.58
			c-1.07,1.25-0.92,2.27-0.39,3.55c5.35,13.03,4.64,26.13-1,38.66c-4.5,9.99-10.4,19.29-18.86,26.68
			c-8.98,7.84-19.62,11.64-31.12,13.67c-10.57,1.86-21.17,0.76-31.77,0.53c-16.14-0.34-32.3-0.31-48.44-0.59
			c-7.35-0.12-14.53,0.56-21.46,3.14c-0.97,0.36-1.9,0.86-3.1,1.41c11.71,20.91,10.96,42.22,2.14,63.91
			c7.03,0.56,13.75,1.22,20.48,1.58c8.41,0.45,16.85,1.05,25.25,0.86c15.96-0.36,31.92-1.1,47.86-1.96
			c12.95-0.69,24.96,2.09,35.79,9.16c8.99,5.87,14.66,14.56,18.5,24.38c6.01,15.36,6.66,31.07,1.13,46.65
			c-4.21,11.85-11.56,21.82-20.67,30.46c-1.07,1.01-2.37,1.83-3.68,2.51c-6.6,3.46-13.26,6.78-19.81,10.32
			c-0.8,0.43-1.44,1.89-1.46,2.9c-0.29,11.51-0.45,23.02-0.63,34.52c-0.04,2.64,0.2,5.29-0.05,7.91c-0.38,3.85,0.15,6.42,4.78,7.4
			c3.82,0.8,5.53,4.08,5.33,7.51c-0.19,3.18-2.76,6.53-6.47,7.06c-4.1,0.58-8.41,0.78-12.49,0.21c-5.14-0.72-7.46-4.03-7.42-9.28
			c0.12-16.61,0.31-33.22,0.46-49.83c0.01-1.03,0-2.06,0-3.27c-4.41,0.9-8.5,1.88-12.63,2.54c-5.1,0.82-10.24,1.47-15.38,2.01
			c-2.07,0.21-3.12,0.68-3.01,3.1c0.57,11.58,0.97,23.17,1.45,34.76c0.02,0.6,0.16,1.19,0.27,1.98c1.01,0.05,1.95,0.08,2.89,0.15
			c4.69,0.38,8.89,4.56,8.93,8.87c0.04,4.09-3.27,7.8-8.22,8c-4.67,0.19-9.42-0.35-14.05-1.1c-3.58-0.58-5.53-3.33-5.8-6.94
			c-0.33-4.38-0.47-8.77-0.58-13.16c-0.29-10.89-0.53-21.79-0.79-32.68c-0.01-0.34-0.1-0.68-0.1-0.67
			c-13.35-0.48-26.56-0.71-39.75-1.49c-13.29-0.78-26.07-4.24-39.3-9.17c0.9,17.11,1.78,33.69,2.66,50.36
			c1.1,0.18,2.23,0.32,3.34,0.55c3.44,0.71,5.93,3.27,6.39,6.51c0.51,3.61-0.89,6.89-4.05,8.43c-3.91,1.9-8.07,2.96-12.49,2.14
			c-4.83-0.89-7.58-3.92-7.78-8.86c-0.57-14.31-1.08-28.62-1.56-42.93c-0.23-6.67-0.29-13.36-0.58-20.03
			c-0.03-0.72-0.95-1.69-1.7-2.06c-7.8-3.77-15.71-7.33-23.47-11.21c-3.01-1.51-5.69-3.67-8.52-5.53
			C174.82,423.21,174.58,423.35,174.34,423.49z M283.93,444.94c6.84,0,13.68,0.15,20.52-0.05c4.55-0.14,9.12-0.57,13.62-1.27
			c10.91-1.69,21.82-3.45,32.68-5.46c14.51-2.68,27.33-9,37.41-19.81c11.8-12.66,17.62-27.7,15.54-45.3
			c-1.23-10.43-4.85-19.85-11.46-28.12c-5.44-6.8-13.31-9.5-20.86-12.72c-1.87-0.8-4.1-1.1-6.15-1.05
			c-10.79,0.27-21.62,0.21-32.35,1.22c-24.79,2.32-49.43,0.5-74.09-1.68c-1.6-0.14-2.47,0.3-3.49,1.55
			c-3.27,3.98-6.57,7.98-10.24,11.58c-2.49,2.45-5.76,2.04-7.72-0.24c-1.95-2.26-1.55-5.29,0.99-7.72c1.52-1.45,3.24-2.76,4.51-4.42
			c14.23-18.55,19.35-38.98,11.69-61.6c-3.57-10.54-9.65-19.62-18.73-26.41c-1.95-1.46-2.52-3.81-1.48-5.85
			c0.98-1.94,3.4-3.18,5.6-2.26c2.22,0.92,4.4,2.24,6.18,3.84c2.34,2.1,4.34,4.59,6.35,7.03c0.95,1.16,1.68,1.25,3.08,0.69
			c3.24-1.31,6.53-2.9,9.92-3.31c8.07-0.99,16.22-1.75,24.35-1.91c13.51-0.25,27.02,0.05,40.53,0.11
			c10.07,0.05,20.16,0.42,30.22,0.03c7.88-0.31,15.56-2.72,22.13-6.97c12.99-8.4,21.02-20.73,24.84-35.61
			c1.89-7.34,1.74-14.84-1.89-21.83c-0.49-0.94-1.62-2.17-2.48-2.18c-8.07-0.14-14.44-5.67-13.93-16.53
			c0.03-0.64-0.35-1.56-0.85-1.92c-10.43-7.65-21.99-12.97-34.37-16.57c-12.71-3.69-25.69-5.5-38.93-5.54
			c-16.9-0.05-33.76,0.65-50.02,5.62c-17.61,5.38-34.85,11.73-51.11,20.67c-11.36,6.25-22.47,12.85-32.13,21.43
			c-21.66,19.22-38.49,42.04-48.83,69.3c-9.3,24.52-14.42,49.69-11.01,76.09c2.12,16.47,7.34,31.84,16.75,45.55
			c17.86,26.01,41.71,44.61,71.02,56.06c11.17,4.36,22.54,8.32,34.03,11.75C256.8,445,270.44,444.82,283.93,444.94z"/>
		<path class="st2" d="M239.91,235.32c2.22,0.92,4.4,2.24,6.18,3.84c2.34,2.1,4.34,4.59,6.35,7.03c0.95,1.16,1.68,1.25,3.08,0.69
			c3.24-1.31,6.53-2.9,9.92-3.31c8.07-0.99,16.22-1.75,24.35-1.91c13.51-0.25,27.02,0.05,40.53,0.11
			c10.07,0.05,20.16,0.42,30.22,0.03c7.88-0.31,15.56-2.72,22.13-6.97c12.99-8.4,21.02-20.73,24.84-35.61
			c1.89-7.34,1.74-14.84-1.89-21.83c-0.49-0.94-1.62-2.17-2.48-2.18c-8.07-0.14-14.44-5.67-13.93-16.53
			c0.03-0.64-0.35-1.56-0.85-1.92c-10.43-7.65-21.99-12.97-34.37-16.57c-12.71-3.69-25.69-5.5-38.93-5.54
			c-16.9-0.05-33.76,0.65-50.02,5.62c-17.61,5.38-34.85,11.73-51.11,20.67c-11.36,6.25-22.47,12.85-32.13,21.43
			c-21.66,19.22-38.49,42.04-48.83,69.3c-9.3,24.52-14.42,49.69-11.01,76.09c2.12,16.47,7.34,31.84,16.75,45.55
			c17.86,26.01,41.71,44.61,71.02,56.06c11.17,4.36,22.54,8.32,34.03,11.75c13.06,3.9,26.7,3.71,40.19,3.83
			c6.84,0,13.68,0.15,20.52-0.05c4.55-0.14,9.12-0.57,13.62-1.27c10.91-1.69,21.82-3.45,32.68-5.46c14.51-2.68,27.33-9,37.41-19.81
			c11.8-12.66,17.62-27.7,15.54-45.3c-1.23-10.43-4.85-19.85-11.46-28.12c-5.44-6.8-13.31-9.5-20.86-12.72
			c-1.87-0.8-4.1-1.1-6.15-1.05c-10.79,0.27-21.62,0.21-32.35,1.22c-24.79,2.32-49.43,0.5-74.09-1.68c-1.6-0.14-2.47,0.3-3.49,1.55
			c-3.27,3.98-6.57,7.98-10.24,11.58c-2.49,2.45-5.76,2.04-7.72-0.24c-1.95-2.26-1.55-5.29,0.99-7.72c1.52-1.45,3.24-2.76,4.51-4.42
			c14.23-18.55,19.35-38.98,11.69-61.6c-3.57-10.54-9.65-19.62-18.73-26.41c-1.95-1.46-2.52-3.81-1.48-5.85
			C235.29,235.64,237.7,234.4,239.91,235.32z"/>
	</g>
	<g id="Layer_8">
		<path d="M207.85,216.67c-0.02,4-3.51,7.69-7.22,7.62c-3.65-0.06-6.77-3.26-6.8-6.95c-0.03-4.1,3.31-7.75,7.07-7.72
			C204.75,209.66,207.87,212.82,207.85,216.67z"/>
		<path d="M247.15,185.08c0,4.04-2.9,7.03-6.84,7.05c-3.95,0.03-7.25-3.05-7.23-6.75c0.02-3.99,3.15-6.99,7.31-7.01
			C244.33,178.36,247.15,181.16,247.15,185.08z"/>
	</g>
</g>
</svg>
