<?xml version="1.0" encoding="utf-8"?>
<!-- Generator: Adobe Illustrator 24.3.0, SVG Export Plug-In . SVG Version: 6.00 Build 0)  -->
<svg version="1.1" id="Layer_1" xmlns="http://www.w3.org/2000/svg" xmlns:xlink="http://www.w3.org/1999/xlink" x="0px" y="0px"
	 viewBox="0 0 16 16" style="enable-background:new 0 0 16 16;" xml:space="preserve">
<style type="text/css">
	.st0{fill:#FFFFFF;}
</style>
<g>
	<g>
		<path d="M13.33,14.94c-0.1,0.04-0.2,0.08-0.3,0.12c-0.09,0.03-0.19,0.06-0.28,0.09c-0.17,0.05-0.35,0.1-0.53,0.14l0,0
			c-0.44,0.11-0.88,0.18-1.33,0.22c-0.05,0-0.1,0.01-0.15,0.01c-0.42,0.04-0.84,0.04-1.26,0c-0.23-0.02-0.47-0.05-0.71-0.11
			l-0.33-0.08c-0.15-0.04-0.3-0.08-0.45-0.13c-0.22-0.07-0.43-0.14-0.65-0.22c-0.11-0.05-0.21-0.1-0.32-0.16l-0.63-0.35
			c-0.03-0.02-0.06-0.03-0.09-0.05c-0.35-0.25-0.68-0.53-0.97-0.84c-0.47-0.51-0.77-1.11-0.94-1.78c-0.25-0.99-0.17-1.98,0.1-2.96
			c0.1-0.37,0.26-0.72,0.4-1.07C4.91,7.7,4.91,7.65,4.86,7.59C4.61,7.26,4.29,7,3.95,6.76C3.5,6.43,2.99,6.24,2.45,6.13
			C2.13,6.06,1.81,5.98,1.52,5.82c-0.64-0.35-0.8-0.97-0.64-1.55C1.02,3.69,1.39,3.33,1.97,3.2c0.55-0.12,1.08-0.05,1.57,0.23
			C3.83,3.6,4.1,3.81,4.32,4.07c0.52,0.6,0.99,1.25,1.38,1.95c0.02,0.04,0.04,0.09,0.07,0.13c0.02,0.04,0.04,0.09,0.06,0.14
			c0.12-0.12,0.23-0.23,0.34-0.34c0.26-0.26,0.55-0.5,0.86-0.7c0.05-0.03,0.08-0.07,0.05-0.14C6.99,4.87,6.9,4.63,6.8,4.39
			C6.65,4.03,6.46,3.7,6.17,3.43C6,3.27,5.8,3.16,5.59,3.06C5.39,2.95,5.18,2.84,4.98,2.72c-0.61-0.39-0.73-1-0.4-1.61
			c0.24-0.46,0.65-0.66,1.15-0.66c0.16,0,0.31,0.02,0.47,0.05C6.55,0.57,6.8,0.8,7.01,1.08c0.36,0.49,0.61,1.04,0.8,1.62
			c0.18,0.57,0.28,1.17,0.38,1.76c0,0.03,0.01,0.05,0.02,0.09C8.31,4.49,8.4,4.45,8.49,4.4c0.43-0.22,0.89-0.35,1.36-0.45
			c0.6-0.13,1.2-0.15,1.81-0.18c0.19-0.01,0.38,0.02,0.57,0.07c0.41,0.1,0.83,0.2,1.2,0.44c0.01-0.02,0.03-0.03,0.04-0.05
			c0.12-0.17,0.28-0.26,0.49-0.22c0.21,0.04,0.35,0.18,0.42,0.38c0.06,0.2,0.05,0.41-0.07,0.59c-0.03,0.05-0.02,0.08,0,0.13
			c0.24,0.43,0.27,0.89,0.13,1.35c-0.11,0.37-0.28,0.72-0.54,1.01c-0.28,0.31-0.63,0.49-1.02,0.61c-0.36,0.11-0.73,0.12-1.1,0.15
			c-0.56,0.06-1.12,0.13-1.69,0.19c-0.26,0.03-0.5,0.08-0.73,0.2c-0.03,0.02-0.06,0.04-0.1,0.06c0.5,0.68,0.56,1.42,0.35,2.21
			c0.25-0.01,0.48-0.02,0.72-0.03c0.29-0.02,0.59-0.04,0.88-0.08c0.55-0.08,1.11-0.18,1.66-0.27c0.45-0.08,0.88-0.03,1.28,0.17
			c0.34,0.17,0.57,0.44,0.75,0.77c0.27,0.51,0.36,1.05,0.24,1.62c-0.09,0.42-0.3,0.8-0.58,1.13c-0.03,0.04-0.09,0.08-0.13,0.12
			c-0.08,0.07-0.18,0.13-0.27,0.19C13.88,14.65,13.61,14.82,13.33,14.94L13.33,14.94z M10.89,15.13c0.24-0.03,0.48-0.05,0.71-0.09
			c0.16-0.02,0.31-0.06,0.47-0.1c0.37-0.11,0.74-0.21,1.11-0.33c0.49-0.16,0.91-0.43,1.22-0.85c0.36-0.49,0.49-1.04,0.35-1.64
			c-0.09-0.36-0.25-0.67-0.52-0.93c-0.22-0.21-0.5-0.27-0.78-0.35c-0.07-0.02-0.15-0.02-0.22-0.01c-0.37,0.06-0.75,0.1-1.12,0.18
			c-0.85,0.19-1.72,0.23-2.58,0.26c-0.06,0-0.08,0.02-0.11,0.07c-0.1,0.15-0.19,0.31-0.31,0.45c-0.08,0.1-0.19,0.1-0.27,0.02
			c-0.08-0.07-0.08-0.18,0-0.27c0.05-0.06,0.1-0.11,0.14-0.17c0.42-0.71,0.51-1.44,0.14-2.19C8.95,8.81,8.7,8.52,8.36,8.33
			c-0.07-0.04-0.1-0.12-0.08-0.2C8.3,8.06,8.38,8,8.46,8.03C8.55,8.05,8.63,8.08,8.7,8.13C8.79,8.2,8.87,8.27,8.95,8.35
			c0.04,0.04,0.06,0.04,0.11,0.01C9.16,8.3,9.27,8.23,9.39,8.2c0.28-0.07,0.56-0.13,0.84-0.17c0.47-0.07,0.94-0.11,1.41-0.17
			c0.35-0.04,0.7-0.07,1.05-0.13c0.27-0.04,0.53-0.16,0.74-0.34c0.42-0.35,0.64-0.81,0.71-1.35c0.03-0.26,0-0.52-0.16-0.75
			c-0.02-0.03-0.07-0.07-0.1-0.07c-0.28,0.03-0.53-0.14-0.56-0.52c0-0.02-0.02-0.05-0.04-0.06c-0.4-0.22-0.82-0.36-1.27-0.43
			c-0.46-0.07-0.92-0.08-1.38-0.03c-0.59,0.07-1.17,0.17-1.72,0.41C8.34,4.87,7.77,5.17,7.24,5.55C6.87,5.81,6.51,6.09,6.22,6.43
			c-0.67,0.76-1.16,1.63-1.4,2.62c-0.22,0.89-0.29,1.79-0.06,2.69c0.14,0.56,0.39,1.08,0.78,1.51c0.73,0.83,1.64,1.37,2.71,1.65
			c0.41,0.1,0.82,0.19,1.23,0.26C9.95,15.25,10.42,15.18,10.89,15.13z"/>
		<path class="st0" d="M8.46,8.03C8.55,8.05,8.63,8.08,8.7,8.13C8.79,8.2,8.87,8.27,8.95,8.35c0.04,0.04,0.06,0.04,0.11,0.01
			C9.16,8.3,9.27,8.23,9.39,8.2c0.28-0.07,0.56-0.13,0.84-0.17c0.47-0.07,0.94-0.11,1.41-0.17c0.35-0.04,0.7-0.07,1.05-0.13
			c0.27-0.04,0.53-0.16,0.74-0.34c0.42-0.35,0.64-0.81,0.71-1.35c0.03-0.26,0-0.52-0.16-0.75c-0.02-0.03-0.07-0.07-0.1-0.07
			c-0.28,0.03-0.53-0.14-0.56-0.52c0-0.02-0.02-0.05-0.04-0.06c-0.4-0.22-0.82-0.36-1.27-0.43c-0.46-0.07-0.92-0.08-1.38-0.03
			c-0.59,0.07-1.17,0.17-1.72,0.41C8.34,4.87,7.77,5.17,7.24,5.55C6.87,5.81,6.51,6.09,6.22,6.43c-0.67,0.76-1.16,1.63-1.4,2.62
			c-0.22,0.89-0.29,1.79-0.06,2.69c0.14,0.56,0.39,1.08,0.78,1.51c0.73,0.83,1.64,1.37,2.71,1.65c0.41,0.1,0.82,0.19,1.23,0.26
			c0.47,0.08,0.94,0.01,1.41-0.04c0.24-0.03,0.48-0.05,0.71-0.09c0.16-0.02,0.31-0.06,0.47-0.1c0.37-0.11,0.74-0.21,1.11-0.33
			c0.49-0.16,0.91-0.43,1.22-0.85c0.36-0.49,0.49-1.04,0.35-1.64c-0.09-0.36-0.25-0.67-0.52-0.93c-0.22-0.21-0.5-0.27-0.78-0.35
			c-0.07-0.02-0.15-0.02-0.22-0.01c-0.37,0.06-0.75,0.1-1.12,0.18c-0.85,0.19-1.72,0.23-2.58,0.26c-0.06,0-0.08,0.02-0.11,0.07
			c-0.1,0.15-0.19,0.31-0.31,0.45c-0.08,0.1-0.19,0.1-0.27,0.02c-0.08-0.07-0.08-0.18,0-0.27c0.05-0.06,0.1-0.11,0.14-0.17
			c0.42-0.71,0.51-1.44,0.14-2.19C8.95,8.81,8.7,8.52,8.36,8.33c-0.07-0.04-0.1-0.12-0.08-0.2C8.3,8.06,8.38,8,8.46,8.03z"/>
	</g>
	<path d="M7.27,7.51c0.02,0.14-0.09,0.28-0.22,0.3C6.92,7.82,6.8,7.73,6.78,7.6C6.77,7.45,6.87,7.31,7,7.3
		C7.13,7.28,7.25,7.38,7.27,7.51z"/>
	<path d="M8.5,6.25C8.52,6.39,8.43,6.5,8.29,6.52c-0.14,0.02-0.27-0.08-0.28-0.2C8,6.18,8.09,6.06,8.24,6.04
		C8.37,6.03,8.48,6.11,8.5,6.25z"/>
</g>
</svg>
